<?xml version="1.0" encoding="UTF-8" standalone="no"?>
<!-- Created with Inkscape (http://www.inkscape.org/) -->

<svg
   width="132.07994mm"
   height="22.1488mm"
   viewBox="0 0 132.07994 22.1488"
   version="1.1"
   id="svg5"
   inkscape:version="1.1.1 (3bf5ae0d25, 2021-09-20)"
   sodipodi:docname="drawing.svg"
   xmlns:inkscape="http://www.inkscape.org/namespaces/inkscape"
   xmlns:sodipodi="http://sodipodi.sourceforge.net/DTD/sodipodi-0.dtd"
   xmlns="http://www.w3.org/2000/svg"
   xmlns:svg="http://www.w3.org/2000/svg">
  <sodipodi:namedview
     id="namedview7"
     pagecolor="#ffffff"
     bordercolor="#666666"
     borderopacity="1.0"
     inkscape:pageshadow="2"
     inkscape:pageopacity="0.0"
     inkscape:pagecheckerboard="0"
     inkscape:document-units="mm"
     showgrid="false"
     inkscape:zoom="4.2431962"
     inkscape:cx="371.30029"
     inkscape:cy="37.353917"
     inkscape:window-width="1920"
     inkscape:window-height="1027"
     inkscape:window-x="1912"
     inkscape:window-y="-8"
     inkscape:window-maximized="1"
     inkscape:current-layer="layer1" />
  <defs
     id="defs2" />
  <g
     inkscape:label="Layer 1"
     inkscape:groupmode="layer"
     id="layer1"
     transform="translate(-31.003041,-15.642213)">
    <g
       aria-label="0x8"
       id="text1566"
       style="font-size:50.8px;line-height:1.25;stroke-width:0.264583">
      <path
         d="m 61.330641,24.278213 q 1.016,0 1.7272,0.7112 0.7112,0.7112 0.7112,1.7272 0,1.016 -0.7112,1.7272 -0.7112,0.7112 -1.7272,0.7112 h -19.304 q -1.016,0 -1.7272,-0.7112 -0.7112,-0.7112 -0.7112,-1.7272 0,-1.016 0.7112,-1.7272 0.7112,-0.7112 1.7272,-0.7112 h 19.304 z m 0.5588,8.636 q 1.7272,0 2.8448,-0.6096 1.1176,-0.6604 1.7272,-1.5748 0.6604,-0.9144 0.8636,-1.9812 0.254,-1.1176 0.254,-2.032 0,-0.9144 -0.254,-1.9812 -0.2032,-1.1176 -0.8636,-2.032 -0.6096,-0.9144 -1.7272,-1.524 -1.1176,-0.6604 -2.8448,-0.6604 h -20.4216 q -1.778,0 -2.8956,0.6604 -1.0668,0.6096 -1.7272,1.524 -0.6096,0.9144 -0.8636,2.032 -0.2032,1.0668 -0.2032,1.9812 0,0.9144 0.2032,2.032 0.254,1.0668 0.8636,1.9812 0.6604,0.9144 1.7272,1.5748 1.1176,0.6096 2.8956,0.6096 h 20.4216 z m 10.4648,-6.1976 q 0,1.9304 -0.6604,3.9116 -0.6096,1.9304 -1.8288,3.556 -1.2192,1.5748 -2.9464,2.5908 -1.7272,1.016 -3.9116,1.016 h -23.1648 q -2.0828,0 -3.7084,-1.016 -1.6256,-1.016 -2.794,-2.5908 -1.1176,-1.6256 -1.7272,-3.6068 -0.6096,-1.9812 -0.6096,-3.8608 0,-1.9304 0.6096,-3.8608 0.6604,-1.9812 1.8796,-3.556 1.2192,-1.6256 2.9464,-2.6416 1.7272,-1.016 3.9116,-1.016 h 23.1648 q 2.0828,0.1016 3.7084,1.1684 1.6256,1.016 2.7432,2.5908 1.1684,1.5748 1.778,3.5052 0.6096,1.9304 0.6096,3.81 z"
         id="path19799" />
      <path
         d="m 117.31222,20.011013 q -2.5908,2.286 -4.7752,3.9624 -2.1844,1.6256 -4.1148,2.7432 1.9304,1.1176 4.064,2.794 2.1336,1.6256 4.826,3.9116 0.4064,0.3556 0.6604,0.8636 0.3048,0.508 0.3048,1.0668 0,1.016 -0.7112,1.7272 -0.7112,0.7112 -1.7272,0.7112 -0.8636,0 -1.7272,-0.7112 -3.2512,-2.8448 -5.4864,-4.4196 -2.1844,-1.6256 -3.9624,-2.3876 -1.7272,-0.762 -3.302,-0.9144 -1.574804,-0.2032 -3.556004,-0.2032 h -1.1176 q -1.6764,0.0508 -3.0988,0.3048 -1.4224,0.2032 -3.0988,1.016 -1.6256,0.8128 -3.7592,2.3876 -2.0828,1.5748 -5.1308,4.2164 -0.4064,0.3048 -0.8128,0.508 -0.4064,0.2032 -0.9144,0.2032 -1.016,0 -1.7272,-0.7112 -0.7112,-0.7112 -0.7112,-1.7272 0,-0.5588 0.254,-1.0668 0.3048,-0.508 0.7112,-0.8636 2.5908,-2.286 4.7752,-3.9116 2.1844,-1.6256 4.1148,-2.7432 -1.9304,-1.1176 -4.1148,-2.7432 -2.1336,-1.6764 -4.7752,-4.0132 -0.4064,-0.3556 -0.7112,-0.8636 -0.254,-0.508 -0.254,-1.0668 0,-1.016 0.7112,-1.7272 0.7112,-0.7112 1.7272,-0.7112 0.508,0 0.9144,0.2032 0.4064,0.2032 0.8128,0.508 3.0988,2.7432 5.2324,4.318 2.1336,1.5748 3.81,2.3876 1.7272,0.762 3.2004,1.016 1.524,0.2032 3.302,0.2032 h 0.762 q 1.9812,0 3.505204,-0.1524 1.524,-0.1524 3.2512,-0.9144 1.7272,-0.762 3.9116,-2.3368 2.2352,-1.6256 5.5372,-4.5212 0.8636,-0.7112 1.7272,-0.7112 1.016,0 1.7272,0.7112 0.7112,0.7112 0.7112,1.7272 0,0.5588 -0.3048,1.0668 -0.254,0.508 -0.6604,0.8636 z"
         id="path19801" />
      <path
         d="m 156.42818,32.914213 q 0.762,0 1.3208,-0.5588 0.6096,-0.5588 0.6096,-1.3208 0,-0.8128 -0.6096,-1.3208 -0.5588,-0.5588 -1.3208,-0.5588 h -26.4668 q -0.762,0 -1.3208,0.508 -0.5588,0.508 -0.5588,1.3208 0,0.762 0.5588,1.3716 0.6096,0.5588 1.3716,0.5588 z m -26.416,-12.3952 q -0.762,0 -1.3716,0.5588 -0.5588,0.5588 -0.5588,1.3208 0,0.8128 0.5588,1.3716 0.6096,0.508 1.3716,0.508 h 26.4668 q 0.762,0 1.3208,-0.508 0.5588,-0.508 0.5588,-1.3208 0,-0.762 -0.6096,-1.3208 -0.5588,-0.6096 -1.3208,-0.6096 z m 0.2032,17.272 q -1.4224,0 -2.6924,-0.508 -1.2192,-0.5588 -2.1844,-1.4732 -0.9144,-0.9144 -1.4732,-2.1336 -0.508,-1.27 -0.508,-2.6924 0,-1.27 0.4064,-2.3368 0.4572,-1.1176 1.1684,-1.9812 -0.7112,-0.8636 -1.1684,-1.9304 -0.4064,-1.1176 -0.4064,-2.3368 0,-1.4224 0.508,-2.6416 0.5588,-1.2192 1.4732,-2.1336 0.9652,-0.9144 2.1844,-1.4224 1.27,-0.5588 2.6924,-0.5588 h 26.0096 q 1.4224,0 2.6416,0.5588 1.27,0.508 2.1844,1.4224 0.9652,0.9144 1.4732,2.1844 0.5588,1.2192 0.5588,2.6416 0,1.27 -0.4572,2.3876 -0.4064,1.0668 -1.1176,1.9304 0.7112,0.8636 1.1176,1.9812 0.4572,1.0668 0.4572,2.286 0,1.4224 -0.5588,2.6416 -0.508,1.2192 -1.4732,2.1336 -0.9144,0.9144 -2.1844,1.4732 -1.2192,0.508 -2.6416,0.508 z"
         id="path19803" />
    </g>
  </g>
</svg>
